<svg xmlns="http://www.w3.org/2000/svg" width="32" height="32" viewBox="0 0 32 32" fill="none" stroke="currentColor" stroke-width="1.5" stroke-linecap="round" stroke-linejoin="round">
  <!-- two isometric cubes fused into one body -->
  <!-- back-left cube -->
  <path d="M10 6 L17 10 L10 14 L3 10 Z" fill="currentColor" fill-opacity="0.25" stroke="none" />
  <path d="M17 10 L17 18 L10 22 L10 14 Z" fill="currentColor" fill-opacity="0.15" stroke="none" />
  <path d="M3 10 L3 18 L10 22 L10 14 Z" fill="currentColor" fill-opacity="0.10" stroke="none" />
  <path d="M10 6 L17 10 L17 18 L10 22 L3 18 L3 10 Z" stroke="currentColor" />
  <!-- front-right cube, overlapping (fused) -->
  <path d="M22 12 L29 16 L22 20 L15 16 Z" fill="currentColor" fill-opacity="0.30" stroke="none" />
  <path d="M29 16 L29 24 L22 28 L22 20 Z" fill="currentColor" fill-opacity="0.18" stroke="none" />
  <path d="M15 16 L15 24 L22 28 L22 20 Z" fill="currentColor" fill-opacity="0.12" stroke="none" />
  <path d="M22 12 L29 16 L29 24 L22 28 L15 24 L15 16 Z" stroke="currentColor" />
  <line x1="22" y1="20" x2="22" y2="28" />
</svg>
