<svg xmlns="http://www.w3.org/2000/svg" width="32" height="32" viewBox="0 0 32 32" fill="none" stroke="currentColor" stroke-width="1.5" stroke-linecap="round" stroke-linejoin="round">
  <!-- isometric cube with a rectangular pocket cut into its top face (#35) -->
  <path d="M16 4 L27 10 L16 16 L5 10 Z" fill="currentColor" fill-opacity="0.28" stroke="none" />
  <path d="M27 10 L27 22 L16 28 L16 16 Z" fill="currentColor" fill-opacity="0.18" stroke="none" />
  <path d="M5 10 L5 22 L16 28 L16 16 Z" fill="currentColor" fill-opacity="0.10" stroke="none" />
  <path d="M16 4 L27 10 L27 22 L16 28 L5 22 L5 10 Z" stroke="currentColor" />
  <!-- recessed pocket: darker inner walls + floor -->
  <path d="M11.6 10 L16 12.4 L16 16.4 L11.6 14 Z" fill="#000000" fill-opacity="0.28" stroke="none" />
  <path d="M16 12.4 L20.4 10 L20.4 14 L16 16.4 Z" fill="#000000" fill-opacity="0.16" stroke="none" />
  <path d="M11.6 14 L16 16.4 L20.4 14 L16 11.6 Z" fill="currentColor" fill-opacity="0.06" stroke="none" />
  <path d="M16 7.6 L20.4 10 L16 12.4 L11.6 10 Z" stroke="currentColor" />
  <polyline points="11.6,10 11.6,14 16,16.4 20.4,14 20.4,10" stroke="currentColor" />
  <line x1="16" y1="12.4" x2="16" y2="16.4" stroke="currentColor" />
</svg>
