<svg xmlns="http://www.w3.org/2000/svg" width="32" height="32" viewBox="0 0 32 32" fill="none" stroke="currentColor" stroke-width="2" stroke-linecap="round" stroke-linejoin="round">
  <!-- cog silhouette: a ring with 8 blocky teeth (not thin radiating spokes, #81), with an
       even-odd punched-out center hole so it reads as a hollow gear, not a solid disc -->
  <path
    fill="currentColor"
    stroke="none"
    fill-rule="evenodd"
    d="M 23.79 14.20 L 26.91 13.48 L 26.91 18.52 L 23.79 17.80 L 22.78 20.24 L 25.50 21.94 L 21.94 25.50 L 20.24 22.78 L 17.80 23.79 L 18.52 26.91 L 13.48 26.91 L 14.20 23.79 L 11.76 22.78 L 10.06 25.50 L 6.50 21.94 L 9.22 20.24 L 8.21 17.80 L 5.09 18.52 L 5.09 13.48 L 8.21 14.20 L 9.22 11.76 L 6.50 10.06 L 10.06 6.50 L 11.76 9.22 L 14.20 8.21 L 13.48 5.09 L 18.52 5.09 L 17.80 8.21 L 20.24 9.22 L 21.94 6.50 L 25.50 10.06 L 22.78 11.76 Z
       M 19.5 16 A 3.5 3.5 0 1 1 12.5 16 A 3.5 3.5 0 1 1 19.5 16 Z"
  />
</svg>
