solid low_poly_bear
  facet normal 0.000000 0.000000 -1.000000
    outer loop
      vertex -1.000000 -0.700000 0.800000
      vertex -1.000000 0.700000 0.800000
      vertex 1.000000 0.700000 0.800000
    endloop
  endfacet
  facet normal 0.000000 0.000000 -1.000000
    outer loop
      vertex -1.000000 -0.700000 0.800000
      vertex 1.000000 0.700000 0.800000
      vertex 1.000000 -0.700000 0.800000
    endloop
  endfacet
  facet normal 0.000000 0.000000 1.000000
    outer loop
      vertex -1.000000 -0.700000 2.200000
      vertex 1.000000 -0.700000 2.200000
      vertex 1.000000 0.700000 2.200000
    endloop
  endfacet
  facet normal 0.000000 0.000000 1.000000
    outer loop
      vertex -1.000000 -0.700000 2.200000
      vertex 1.000000 0.700000 2.200000
      vertex -1.000000 0.700000 2.200000
    endloop
  endfacet
  facet normal 0.000000 -1.000000 0.000000
    outer loop
      vertex -1.000000 -0.700000 0.800000
      vertex 1.000000 -0.700000 0.800000
      vertex 1.000000 -0.700000 2.200000
    endloop
  endfacet
  facet normal 0.000000 -1.000000 0.000000
    outer loop
      vertex -1.000000 -0.700000 0.800000
      vertex 1.000000 -0.700000 2.200000
      vertex -1.000000 -0.700000 2.200000
    endloop
  endfacet
  facet normal 0.000000 1.000000 0.000000
    outer loop
      vertex 1.000000 0.700000 0.800000
      vertex -1.000000 0.700000 0.800000
      vertex -1.000000 0.700000 2.200000
    endloop
  endfacet
  facet normal 0.000000 1.000000 -0.000000
    outer loop
      vertex 1.000000 0.700000 0.800000
      vertex -1.000000 0.700000 2.200000
      vertex 1.000000 0.700000 2.200000
    endloop
  endfacet
  facet normal -1.000000 0.000000 0.000000
    outer loop
      vertex -1.000000 -0.700000 0.800000
      vertex -1.000000 -0.700000 2.200000
      vertex -1.000000 0.700000 2.200000
    endloop
  endfacet
  facet normal -1.000000 0.000000 0.000000
    outer loop
      vertex -1.000000 -0.700000 0.800000
      vertex -1.000000 0.700000 2.200000
      vertex -1.000000 0.700000 0.800000
    endloop
  endfacet
  facet normal 1.000000 0.000000 0.000000
    outer loop
      vertex 1.000000 -0.700000 0.800000
      vertex 1.000000 0.700000 0.800000
      vertex 1.000000 0.700000 2.200000
    endloop
  endfacet
  facet normal 1.000000 0.000000 0.000000
    outer loop
      vertex 1.000000 -0.700000 0.800000
      vertex 1.000000 0.700000 2.200000
      vertex 1.000000 -0.700000 2.200000
    endloop
  endfacet
  facet normal 0.000000 0.000000 -1.000000
    outer loop
      vertex 0.800000 -0.600000 2.000000
      vertex 0.800000 0.600000 2.000000
      vertex 2.000000 0.600000 2.000000
    endloop
  endfacet
  facet normal 0.000000 0.000000 -1.000000
    outer loop
      vertex 0.800000 -0.600000 2.000000
      vertex 2.000000 0.600000 2.000000
      vertex 2.000000 -0.600000 2.000000
    endloop
  endfacet
  facet normal 0.000000 0.000000 1.000000
    outer loop
      vertex 0.800000 -0.600000 3.200000
      vertex 2.000000 -0.600000 3.200000
      vertex 2.000000 0.600000 3.200000
    endloop
  endfacet
  facet normal 0.000000 0.000000 1.000000
    outer loop
      vertex 0.800000 -0.600000 3.200000
      vertex 2.000000 0.600000 3.200000
      vertex 0.800000 0.600000 3.200000
    endloop
  endfacet
  facet normal 0.000000 -1.000000 0.000000
    outer loop
      vertex 0.800000 -0.600000 2.000000
      vertex 2.000000 -0.600000 2.000000
      vertex 2.000000 -0.600000 3.200000
    endloop
  endfacet
  facet normal 0.000000 -1.000000 0.000000
    outer loop
      vertex 0.800000 -0.600000 2.000000
      vertex 2.000000 -0.600000 3.200000
      vertex 0.800000 -0.600000 3.200000
    endloop
  endfacet
  facet normal 0.000000 1.000000 0.000000
    outer loop
      vertex 2.000000 0.600000 2.000000
      vertex 0.800000 0.600000 2.000000
      vertex 0.800000 0.600000 3.200000
    endloop
  endfacet
  facet normal 0.000000 1.000000 -0.000000
    outer loop
      vertex 2.000000 0.600000 2.000000
      vertex 0.800000 0.600000 3.200000
      vertex 2.000000 0.600000 3.200000
    endloop
  endfacet
  facet normal -1.000000 0.000000 0.000000
    outer loop
      vertex 0.800000 -0.600000 2.000000
      vertex 0.800000 -0.600000 3.200000
      vertex 0.800000 0.600000 3.200000
    endloop
  endfacet
  facet normal -1.000000 0.000000 0.000000
    outer loop
      vertex 0.800000 -0.600000 2.000000
      vertex 0.800000 0.600000 3.200000
      vertex 0.800000 0.600000 2.000000
    endloop
  endfacet
  facet normal 1.000000 0.000000 0.000000
    outer loop
      vertex 2.000000 -0.600000 2.000000
      vertex 2.000000 0.600000 2.000000
      vertex 2.000000 0.600000 3.200000
    endloop
  endfacet
  facet normal 1.000000 0.000000 0.000000
    outer loop
      vertex 2.000000 -0.600000 2.000000
      vertex 2.000000 0.600000 3.200000
      vertex 2.000000 -0.600000 3.200000
    endloop
  endfacet
  facet normal 0.000000 0.000000 -1.000000
    outer loop
      vertex 1.700000 -0.350000 2.200000
      vertex 1.700000 0.350000 2.200000
      vertex 2.400000 0.350000 2.200000
    endloop
  endfacet
  facet normal 0.000000 0.000000 -1.000000
    outer loop
      vertex 1.700000 -0.350000 2.200000
      vertex 2.400000 0.350000 2.200000
      vertex 2.400000 -0.350000 2.200000
    endloop
  endfacet
  facet normal 0.000000 0.000000 1.000000
    outer loop
      vertex 1.700000 -0.350000 2.700000
      vertex 2.400000 -0.350000 2.700000
      vertex 2.400000 0.350000 2.700000
    endloop
  endfacet
  facet normal 0.000000 0.000000 1.000000
    outer loop
      vertex 1.700000 -0.350000 2.700000
      vertex 2.400000 0.350000 2.700000
      vertex 1.700000 0.350000 2.700000
    endloop
  endfacet
  facet normal 0.000000 -1.000000 0.000000
    outer loop
      vertex 1.700000 -0.350000 2.200000
      vertex 2.400000 -0.350000 2.200000
      vertex 2.400000 -0.350000 2.700000
    endloop
  endfacet
  facet normal 0.000000 -1.000000 0.000000
    outer loop
      vertex 1.700000 -0.350000 2.200000
      vertex 2.400000 -0.350000 2.700000
      vertex 1.700000 -0.350000 2.700000
    endloop
  endfacet
  facet normal 0.000000 1.000000 0.000000
    outer loop
      vertex 2.400000 0.350000 2.200000
      vertex 1.700000 0.350000 2.200000
      vertex 1.700000 0.350000 2.700000
    endloop
  endfacet
  facet normal 0.000000 1.000000 -0.000000
    outer loop
      vertex 2.400000 0.350000 2.200000
      vertex 1.700000 0.350000 2.700000
      vertex 2.400000 0.350000 2.700000
    endloop
  endfacet
  facet normal -1.000000 0.000000 0.000000
    outer loop
      vertex 1.700000 -0.350000 2.200000
      vertex 1.700000 -0.350000 2.700000
      vertex 1.700000 0.350000 2.700000
    endloop
  endfacet
  facet normal -1.000000 0.000000 0.000000
    outer loop
      vertex 1.700000 -0.350000 2.200000
      vertex 1.700000 0.350000 2.700000
      vertex 1.700000 0.350000 2.200000
    endloop
  endfacet
  facet normal 1.000000 0.000000 0.000000
    outer loop
      vertex 2.400000 -0.350000 2.200000
      vertex 2.400000 0.350000 2.200000
      vertex 2.400000 0.350000 2.700000
    endloop
  endfacet
  facet normal 1.000000 0.000000 0.000000
    outer loop
      vertex 2.400000 -0.350000 2.200000
      vertex 2.400000 0.350000 2.700000
      vertex 2.400000 -0.350000 2.700000
    endloop
  endfacet
  facet normal 0.000000 0.000000 -1.000000
    outer loop
      vertex 1.000000 -0.550000 3.100000
      vertex 1.000000 -0.350000 3.100000
      vertex 1.400000 -0.350000 3.100000
    endloop
  endfacet
  facet normal 0.000000 0.000000 -1.000000
    outer loop
      vertex 1.000000 -0.550000 3.100000
      vertex 1.400000 -0.350000 3.100000
      vertex 1.400000 -0.550000 3.100000
    endloop
  endfacet
  facet normal 0.000000 0.000000 1.000000
    outer loop
      vertex 1.000000 -0.550000 3.600000
      vertex 1.400000 -0.550000 3.600000
      vertex 1.400000 -0.350000 3.600000
    endloop
  endfacet
  facet normal 0.000000 0.000000 1.000000
    outer loop
      vertex 1.000000 -0.550000 3.600000
      vertex 1.400000 -0.350000 3.600000
      vertex 1.000000 -0.350000 3.600000
    endloop
  endfacet
  facet normal 0.000000 -1.000000 0.000000
    outer loop
      vertex 1.000000 -0.550000 3.100000
      vertex 1.400000 -0.550000 3.100000
      vertex 1.400000 -0.550000 3.600000
    endloop
  endfacet
  facet normal 0.000000 -1.000000 0.000000
    outer loop
      vertex 1.000000 -0.550000 3.100000
      vertex 1.400000 -0.550000 3.600000
      vertex 1.000000 -0.550000 3.600000
    endloop
  endfacet
  facet normal 0.000000 1.000000 0.000000
    outer loop
      vertex 1.400000 -0.350000 3.100000
      vertex 1.000000 -0.350000 3.100000
      vertex 1.000000 -0.350000 3.600000
    endloop
  endfacet
  facet normal 0.000000 1.000000 -0.000000
    outer loop
      vertex 1.400000 -0.350000 3.100000
      vertex 1.000000 -0.350000 3.600000
      vertex 1.400000 -0.350000 3.600000
    endloop
  endfacet
  facet normal -1.000000 0.000000 0.000000
    outer loop
      vertex 1.000000 -0.550000 3.100000
      vertex 1.000000 -0.550000 3.600000
      vertex 1.000000 -0.350000 3.600000
    endloop
  endfacet
  facet normal -1.000000 0.000000 0.000000
    outer loop
      vertex 1.000000 -0.550000 3.100000
      vertex 1.000000 -0.350000 3.600000
      vertex 1.000000 -0.350000 3.100000
    endloop
  endfacet
  facet normal 1.000000 0.000000 0.000000
    outer loop
      vertex 1.400000 -0.550000 3.100000
      vertex 1.400000 -0.350000 3.100000
      vertex 1.400000 -0.350000 3.600000
    endloop
  endfacet
  facet normal 1.000000 0.000000 0.000000
    outer loop
      vertex 1.400000 -0.550000 3.100000
      vertex 1.400000 -0.350000 3.600000
      vertex 1.400000 -0.550000 3.600000
    endloop
  endfacet
  facet normal 0.000000 0.000000 -1.000000
    outer loop
      vertex 1.000000 0.350000 3.100000
      vertex 1.000000 0.550000 3.100000
      vertex 1.400000 0.550000 3.100000
    endloop
  endfacet
  facet normal 0.000000 0.000000 -1.000000
    outer loop
      vertex 1.000000 0.350000 3.100000
      vertex 1.400000 0.550000 3.100000
      vertex 1.400000 0.350000 3.100000
    endloop
  endfacet
  facet normal 0.000000 0.000000 1.000000
    outer loop
      vertex 1.000000 0.350000 3.600000
      vertex 1.400000 0.350000 3.600000
      vertex 1.400000 0.550000 3.600000
    endloop
  endfacet
  facet normal 0.000000 0.000000 1.000000
    outer loop
      vertex 1.000000 0.350000 3.600000
      vertex 1.400000 0.550000 3.600000
      vertex 1.000000 0.550000 3.600000
    endloop
  endfacet
  facet normal 0.000000 -1.000000 0.000000
    outer loop
      vertex 1.000000 0.350000 3.100000
      vertex 1.400000 0.350000 3.100000
      vertex 1.400000 0.350000 3.600000
    endloop
  endfacet
  facet normal 0.000000 -1.000000 0.000000
    outer loop
      vertex 1.000000 0.350000 3.100000
      vertex 1.400000 0.350000 3.600000
      vertex 1.000000 0.350000 3.600000
    endloop
  endfacet
  facet normal 0.000000 1.000000 0.000000
    outer loop
      vertex 1.400000 0.550000 3.100000
      vertex 1.000000 0.550000 3.100000
      vertex 1.000000 0.550000 3.600000
    endloop
  endfacet
  facet normal 0.000000 1.000000 -0.000000
    outer loop
      vertex 1.400000 0.550000 3.100000
      vertex 1.000000 0.550000 3.600000
      vertex 1.400000 0.550000 3.600000
    endloop
  endfacet
  facet normal -1.000000 0.000000 0.000000
    outer loop
      vertex 1.000000 0.350000 3.100000
      vertex 1.000000 0.350000 3.600000
      vertex 1.000000 0.550000 3.600000
    endloop
  endfacet
  facet normal -1.000000 0.000000 0.000000
    outer loop
      vertex 1.000000 0.350000 3.100000
      vertex 1.000000 0.550000 3.600000
      vertex 1.000000 0.550000 3.100000
    endloop
  endfacet
  facet normal 1.000000 0.000000 0.000000
    outer loop
      vertex 1.400000 0.350000 3.100000
      vertex 1.400000 0.550000 3.100000
      vertex 1.400000 0.550000 3.600000
    endloop
  endfacet
  facet normal 1.000000 0.000000 0.000000
    outer loop
      vertex 1.400000 0.350000 3.100000
      vertex 1.400000 0.550000 3.600000
      vertex 1.400000 0.350000 3.600000
    endloop
  endfacet
  facet normal 0.000000 0.000000 -1.000000
    outer loop
      vertex 0.600000 -0.550000 0.000000
      vertex 0.600000 -0.250000 0.000000
      vertex 0.900000 -0.250000 0.000000
    endloop
  endfacet
  facet normal 0.000000 0.000000 -1.000000
    outer loop
      vertex 0.600000 -0.550000 0.000000
      vertex 0.900000 -0.250000 0.000000
      vertex 0.900000 -0.550000 0.000000
    endloop
  endfacet
  facet normal 0.000000 0.000000 1.000000
    outer loop
      vertex 0.600000 -0.550000 1.000000
      vertex 0.900000 -0.550000 1.000000
      vertex 0.900000 -0.250000 1.000000
    endloop
  endfacet
  facet normal 0.000000 0.000000 1.000000
    outer loop
      vertex 0.600000 -0.550000 1.000000
      vertex 0.900000 -0.250000 1.000000
      vertex 0.600000 -0.250000 1.000000
    endloop
  endfacet
  facet normal 0.000000 -1.000000 0.000000
    outer loop
      vertex 0.600000 -0.550000 0.000000
      vertex 0.900000 -0.550000 0.000000
      vertex 0.900000 -0.550000 1.000000
    endloop
  endfacet
  facet normal 0.000000 -1.000000 0.000000
    outer loop
      vertex 0.600000 -0.550000 0.000000
      vertex 0.900000 -0.550000 1.000000
      vertex 0.600000 -0.550000 1.000000
    endloop
  endfacet
  facet normal 0.000000 1.000000 0.000000
    outer loop
      vertex 0.900000 -0.250000 0.000000
      vertex 0.600000 -0.250000 0.000000
      vertex 0.600000 -0.250000 1.000000
    endloop
  endfacet
  facet normal 0.000000 1.000000 -0.000000
    outer loop
      vertex 0.900000 -0.250000 0.000000
      vertex 0.600000 -0.250000 1.000000
      vertex 0.900000 -0.250000 1.000000
    endloop
  endfacet
  facet normal -1.000000 0.000000 0.000000
    outer loop
      vertex 0.600000 -0.550000 0.000000
      vertex 0.600000 -0.550000 1.000000
      vertex 0.600000 -0.250000 1.000000
    endloop
  endfacet
  facet normal -1.000000 0.000000 0.000000
    outer loop
      vertex 0.600000 -0.550000 0.000000
      vertex 0.600000 -0.250000 1.000000
      vertex 0.600000 -0.250000 0.000000
    endloop
  endfacet
  facet normal 1.000000 0.000000 0.000000
    outer loop
      vertex 0.900000 -0.550000 0.000000
      vertex 0.900000 -0.250000 0.000000
      vertex 0.900000 -0.250000 1.000000
    endloop
  endfacet
  facet normal 1.000000 0.000000 0.000000
    outer loop
      vertex 0.900000 -0.550000 0.000000
      vertex 0.900000 -0.250000 1.000000
      vertex 0.900000 -0.550000 1.000000
    endloop
  endfacet
  facet normal 0.000000 0.000000 -1.000000
    outer loop
      vertex 0.600000 0.250000 0.000000
      vertex 0.600000 0.550000 0.000000
      vertex 0.900000 0.550000 0.000000
    endloop
  endfacet
  facet normal 0.000000 0.000000 -1.000000
    outer loop
      vertex 0.600000 0.250000 0.000000
      vertex 0.900000 0.550000 0.000000
      vertex 0.900000 0.250000 0.000000
    endloop
  endfacet
  facet normal 0.000000 0.000000 1.000000
    outer loop
      vertex 0.600000 0.250000 1.000000
      vertex 0.900000 0.250000 1.000000
      vertex 0.900000 0.550000 1.000000
    endloop
  endfacet
  facet normal 0.000000 0.000000 1.000000
    outer loop
      vertex 0.600000 0.250000 1.000000
      vertex 0.900000 0.550000 1.000000
      vertex 0.600000 0.550000 1.000000
    endloop
  endfacet
  facet normal 0.000000 -1.000000 0.000000
    outer loop
      vertex 0.600000 0.250000 0.000000
      vertex 0.900000 0.250000 0.000000
      vertex 0.900000 0.250000 1.000000
    endloop
  endfacet
  facet normal 0.000000 -1.000000 0.000000
    outer loop
      vertex 0.600000 0.250000 0.000000
      vertex 0.900000 0.250000 1.000000
      vertex 0.600000 0.250000 1.000000
    endloop
  endfacet
  facet normal 0.000000 1.000000 0.000000
    outer loop
      vertex 0.900000 0.550000 0.000000
      vertex 0.600000 0.550000 0.000000
      vertex 0.600000 0.550000 1.000000
    endloop
  endfacet
  facet normal 0.000000 1.000000 -0.000000
    outer loop
      vertex 0.900000 0.550000 0.000000
      vertex 0.600000 0.550000 1.000000
      vertex 0.900000 0.550000 1.000000
    endloop
  endfacet
  facet normal -1.000000 0.000000 0.000000
    outer loop
      vertex 0.600000 0.250000 0.000000
      vertex 0.600000 0.250000 1.000000
      vertex 0.600000 0.550000 1.000000
    endloop
  endfacet
  facet normal -1.000000 0.000000 0.000000
    outer loop
      vertex 0.600000 0.250000 0.000000
      vertex 0.600000 0.550000 1.000000
      vertex 0.600000 0.550000 0.000000
    endloop
  endfacet
  facet normal 1.000000 0.000000 0.000000
    outer loop
      vertex 0.900000 0.250000 0.000000
      vertex 0.900000 0.550000 0.000000
      vertex 0.900000 0.550000 1.000000
    endloop
  endfacet
  facet normal 1.000000 0.000000 0.000000
    outer loop
      vertex 0.900000 0.250000 0.000000
      vertex 0.900000 0.550000 1.000000
      vertex 0.900000 0.250000 1.000000
    endloop
  endfacet
  facet normal 0.000000 0.000000 -1.000000
    outer loop
      vertex -0.900000 -0.550000 0.000000
      vertex -0.900000 -0.250000 0.000000
      vertex -0.600000 -0.250000 0.000000
    endloop
  endfacet
  facet normal 0.000000 0.000000 -1.000000
    outer loop
      vertex -0.900000 -0.550000 0.000000
      vertex -0.600000 -0.250000 0.000000
      vertex -0.600000 -0.550000 0.000000
    endloop
  endfacet
  facet normal 0.000000 0.000000 1.000000
    outer loop
      vertex -0.900000 -0.550000 1.000000
      vertex -0.600000 -0.550000 1.000000
      vertex -0.600000 -0.250000 1.000000
    endloop
  endfacet
  facet normal 0.000000 0.000000 1.000000
    outer loop
      vertex -0.900000 -0.550000 1.000000
      vertex -0.600000 -0.250000 1.000000
      vertex -0.900000 -0.250000 1.000000
    endloop
  endfacet
  facet normal 0.000000 -1.000000 0.000000
    outer loop
      vertex -0.900000 -0.550000 0.000000
      vertex -0.600000 -0.550000 0.000000
      vertex -0.600000 -0.550000 1.000000
    endloop
  endfacet
  facet normal 0.000000 -1.000000 0.000000
    outer loop
      vertex -0.900000 -0.550000 0.000000
      vertex -0.600000 -0.550000 1.000000
      vertex -0.900000 -0.550000 1.000000
    endloop
  endfacet
  facet normal 0.000000 1.000000 0.000000
    outer loop
      vertex -0.600000 -0.250000 0.000000
      vertex -0.900000 -0.250000 0.000000
      vertex -0.900000 -0.250000 1.000000
    endloop
  endfacet
  facet normal 0.000000 1.000000 -0.000000
    outer loop
      vertex -0.600000 -0.250000 0.000000
      vertex -0.900000 -0.250000 1.000000
      vertex -0.600000 -0.250000 1.000000
    endloop
  endfacet
  facet normal -1.000000 0.000000 0.000000
    outer loop
      vertex -0.900000 -0.550000 0.000000
      vertex -0.900000 -0.550000 1.000000
      vertex -0.900000 -0.250000 1.000000
    endloop
  endfacet
  facet normal -1.000000 0.000000 0.000000
    outer loop
      vertex -0.900000 -0.550000 0.000000
      vertex -0.900000 -0.250000 1.000000
      vertex -0.900000 -0.250000 0.000000
    endloop
  endfacet
  facet normal 1.000000 0.000000 0.000000
    outer loop
      vertex -0.600000 -0.550000 0.000000
      vertex -0.600000 -0.250000 0.000000
      vertex -0.600000 -0.250000 1.000000
    endloop
  endfacet
  facet normal 1.000000 0.000000 0.000000
    outer loop
      vertex -0.600000 -0.550000 0.000000
      vertex -0.600000 -0.250000 1.000000
      vertex -0.600000 -0.550000 1.000000
    endloop
  endfacet
  facet normal 0.000000 0.000000 -1.000000
    outer loop
      vertex -0.900000 0.250000 0.000000
      vertex -0.900000 0.550000 0.000000
      vertex -0.600000 0.550000 0.000000
    endloop
  endfacet
  facet normal 0.000000 0.000000 -1.000000
    outer loop
      vertex -0.900000 0.250000 0.000000
      vertex -0.600000 0.550000 0.000000
      vertex -0.600000 0.250000 0.000000
    endloop
  endfacet
  facet normal 0.000000 0.000000 1.000000
    outer loop
      vertex -0.900000 0.250000 1.000000
      vertex -0.600000 0.250000 1.000000
      vertex -0.600000 0.550000 1.000000
    endloop
  endfacet
  facet normal 0.000000 0.000000 1.000000
    outer loop
      vertex -0.900000 0.250000 1.000000
      vertex -0.600000 0.550000 1.000000
      vertex -0.900000 0.550000 1.000000
    endloop
  endfacet
  facet normal 0.000000 -1.000000 0.000000
    outer loop
      vertex -0.900000 0.250000 0.000000
      vertex -0.600000 0.250000 0.000000
      vertex -0.600000 0.250000 1.000000
    endloop
  endfacet
  facet normal 0.000000 -1.000000 0.000000
    outer loop
      vertex -0.900000 0.250000 0.000000
      vertex -0.600000 0.250000 1.000000
      vertex -0.900000 0.250000 1.000000
    endloop
  endfacet
  facet normal 0.000000 1.000000 0.000000
    outer loop
      vertex -0.600000 0.550000 0.000000
      vertex -0.900000 0.550000 0.000000
      vertex -0.900000 0.550000 1.000000
    endloop
  endfacet
  facet normal 0.000000 1.000000 -0.000000
    outer loop
      vertex -0.600000 0.550000 0.000000
      vertex -0.900000 0.550000 1.000000
      vertex -0.600000 0.550000 1.000000
    endloop
  endfacet
  facet normal -1.000000 0.000000 0.000000
    outer loop
      vertex -0.900000 0.250000 0.000000
      vertex -0.900000 0.250000 1.000000
      vertex -0.900000 0.550000 1.000000
    endloop
  endfacet
  facet normal -1.000000 0.000000 0.000000
    outer loop
      vertex -0.900000 0.250000 0.000000
      vertex -0.900000 0.550000 1.000000
      vertex -0.900000 0.550000 0.000000
    endloop
  endfacet
  facet normal 1.000000 0.000000 0.000000
    outer loop
      vertex -0.600000 0.250000 0.000000
      vertex -0.600000 0.550000 0.000000
      vertex -0.600000 0.550000 1.000000
    endloop
  endfacet
  facet normal 1.000000 0.000000 0.000000
    outer loop
      vertex -0.600000 0.250000 0.000000
      vertex -0.600000 0.550000 1.000000
      vertex -0.600000 0.250000 1.000000
    endloop
  endfacet
  facet normal 0.000000 0.000000 -1.000000
    outer loop
      vertex -1.300000 -0.200000 1.500000
      vertex -1.300000 0.200000 1.500000
      vertex -1.000000 0.200000 1.500000
    endloop
  endfacet
  facet normal 0.000000 0.000000 -1.000000
    outer loop
      vertex -1.300000 -0.200000 1.500000
      vertex -1.000000 0.200000 1.500000
      vertex -1.000000 -0.200000 1.500000
    endloop
  endfacet
  facet normal 0.000000 0.000000 1.000000
    outer loop
      vertex -1.300000 -0.200000 2.000000
      vertex -1.000000 -0.200000 2.000000
      vertex -1.000000 0.200000 2.000000
    endloop
  endfacet
  facet normal 0.000000 0.000000 1.000000
    outer loop
      vertex -1.300000 -0.200000 2.000000
      vertex -1.000000 0.200000 2.000000
      vertex -1.300000 0.200000 2.000000
    endloop
  endfacet
  facet normal 0.000000 -1.000000 0.000000
    outer loop
      vertex -1.300000 -0.200000 1.500000
      vertex -1.000000 -0.200000 1.500000
      vertex -1.000000 -0.200000 2.000000
    endloop
  endfacet
  facet normal 0.000000 -1.000000 0.000000
    outer loop
      vertex -1.300000 -0.200000 1.500000
      vertex -1.000000 -0.200000 2.000000
      vertex -1.300000 -0.200000 2.000000
    endloop
  endfacet
  facet normal 0.000000 1.000000 0.000000
    outer loop
      vertex -1.000000 0.200000 1.500000
      vertex -1.300000 0.200000 1.500000
      vertex -1.300000 0.200000 2.000000
    endloop
  endfacet
  facet normal 0.000000 1.000000 -0.000000
    outer loop
      vertex -1.000000 0.200000 1.500000
      vertex -1.300000 0.200000 2.000000
      vertex -1.000000 0.200000 2.000000
    endloop
  endfacet
  facet normal -1.000000 0.000000 0.000000
    outer loop
      vertex -1.300000 -0.200000 1.500000
      vertex -1.300000 -0.200000 2.000000
      vertex -1.300000 0.200000 2.000000
    endloop
  endfacet
  facet normal -1.000000 0.000000 0.000000
    outer loop
      vertex -1.300000 -0.200000 1.500000
      vertex -1.300000 0.200000 2.000000
      vertex -1.300000 0.200000 1.500000
    endloop
  endfacet
  facet normal 1.000000 0.000000 0.000000
    outer loop
      vertex -1.000000 -0.200000 1.500000
      vertex -1.000000 0.200000 1.500000
      vertex -1.000000 0.200000 2.000000
    endloop
  endfacet
  facet normal 1.000000 0.000000 0.000000
    outer loop
      vertex -1.000000 -0.200000 1.500000
      vertex -1.000000 0.200000 2.000000
      vertex -1.000000 -0.200000 2.000000
    endloop
  endfacet
endsolid low_poly_bear
